<?xml version="1.0" encoding="UTF-8"?>
<svg width="256" height="256" viewBox="0 0 256 256" xmlns="http://www.w3.org/2000/svg">
  <defs>
    <linearGradient id="panel" x1="0" y1="0" x2="0" y2="1">
      <stop offset="0" stop-color="#2a343c"/>
      <stop offset="1" stop-color="#1b2228"/>
    </linearGradient>
    <linearGradient id="header" x1="0" y1="0" x2="0" y2="1">
      <stop offset="0" stop-color="#4fd8c4"/>
      <stop offset="1" stop-color="#2ea896"/>
    </linearGradient>
  </defs>
  <!-- module face plate -->
  <rect x="20" y="16" width="216" height="224" rx="22" fill="url(#panel)" stroke="#0c0f12" stroke-width="4"/>
  <!-- rails -->
  <rect x="24" y="20" width="208" height="22" rx="18" fill="#11161a"/>
  <rect x="24" y="214" width="208" height="22" rx="18" fill="#11161a"/>
  <circle cx="44" cy="31" r="5" fill="#39434b"/>
  <circle cx="212" cy="31" r="5" fill="#39434b"/>
  <circle cx="44" cy="225" r="5" fill="#39434b"/>
  <circle cx="212" cy="225" r="5" fill="#39434b"/>
  <!-- header strip -->
  <rect x="24" y="44" width="208" height="34" fill="url(#header)"/>
  <circle cx="205" cy="61" r="7" fill="#92d95e"/>
  <!-- jacks -->
  <circle cx="66" cy="118" r="20" fill="#11161a" stroke="#4fd8c4" stroke-width="6"/>
  <circle cx="66" cy="118" r="6" fill="#4fd8c4"/>
  <circle cx="190" cy="182" r="20" fill="#11161a" stroke="#b48cff" stroke-width="6"/>
  <circle cx="190" cy="182" r="6" fill="#b48cff"/>
  <!-- sagging patch cable -->
  <path d="M 66 118 C 100 205, 150 225, 190 182" fill="none" stroke="#ffb45b" stroke-width="11" stroke-linecap="round"/>
  <path d="M 66 118 C 100 205, 150 225, 190 182" fill="none" stroke="#ffd9a0" stroke-width="4" stroke-linecap="round" opacity="0.7"/>
  <!-- knob -->
  <circle cx="150" cy="118" r="17" fill="#11161a" stroke="#39434b" stroke-width="3"/>
  <line x1="150" y1="118" x2="141" y2="104" stroke="#efeadd" stroke-width="5" stroke-linecap="round"/>
</svg>
